<?xml version="1.0" standalone="no"?>
<!DOCTYPE svg PUBLIC "-//W3C//DTD SVG 20010904//EN"
 "http://www.w3.org/TR/2001/REC-SVG-20010904/DTD/svg10.dtd">
<svg version="1.0" xmlns="http://www.w3.org/2000/svg"
 width="999.000000pt" height="250.000000pt" viewBox="0 0 999.000000 250.000000"
 preserveAspectRatio="xMidYMid meet">

<g transform="translate(0.000000,250.000000) scale(0.100000,-0.100000)"
fill="#000000" stroke="none">
<path d="M300 1265 l0 -935 155 0 155 0 0 935 0 935 -155 0 -155 0 0 -935z"/>
<path d="M1890 1607 c0 -342 4 -628 10 -677 26 -215 111 -379 251 -484 116
-87 265 -139 437 -152 l82 -7 0 142 0 141 -37 0 c-53 0 -156 26 -205 51 -58
29 -130 100 -161 157 -56 104 -57 111 -57 794 l0 628 -160 0 -160 0 0 -593z"/>
<path d="M3190 1643 c-1 -593 -7 -717 -40 -807 -56 -148 -190 -244 -367 -262
l-63 -7 0 -140 0 -140 78 7 c200 17 368 84 485 196 85 81 129 150 167 262 45
132 50 215 50 856 l0 592 -155 0 -155 0 0 -557z"/>
<path d="M3940 1265 l0 -935 150 0 150 0 0 935 0 935 -150 0 -150 0 0 -935z"/>
<path d="M5255 1739 c-204 -307 -304 -467 -300 -478 7 -21 149 -231 155 -231
3 1 78 107 167 238 89 130 193 281 230 334 l68 97 3 -684 2 -685 155 0 155 0
0 935 0 935 -164 0 -164 0 -307 -461z"/>
<path d="M6330 1265 l0 -935 155 0 155 0 0 935 0 935 -155 0 -155 0 0 -935z"/>
<path d="M6700 2065 l0 -135 500 0 500 0 0 135 0 135 -500 0 -500 0 0 -135z"/>
<path d="M8090 1265 l0 -935 155 0 155 0 0 935 0 935 -155 0 -155 0 0 -935z"/>
<path d="M9440 1553 l0 -648 155 -204 155 -204 0 852 0 851 -155 0 -155 0 0
-647z"/>
<path d="M4300 1874 l0 -260 283 -407 282 -406 45 0 45 0 55 80 c30 45 56 85
58 89 2 5 -170 269 -382 587 l-386 578 0 -261z"/>
<path d="M8460 1876 l0 -237 318 -421 c174 -231 396 -525 492 -652 l175 -231
153 -3 152 -3 0 40 c0 34 -12 54 -83 147 -46 60 -200 264 -343 454 -353 468
-856 1134 -860 1139 -2 2 -4 -102 -4 -233z"/>
<path d="M6700 1255 l0 -135 450 0 450 0 0 135 0 135 -450 0 -450 0 0 -135z"/>
<path d="M670 465 l0 -135 475 0 475 0 0 135 0 135 -475 0 -475 0 0 -135z"/>
<path d="M6700 465 l0 -135 500 0 500 0 0 135 0 135 -500 0 -500 0 0 -135z"/>
</g>
</svg>
