<?xml version="1.0" standalone="no"?>
<!DOCTYPE svg PUBLIC "-//W3C//DTD SVG 20010904//EN"
 "http://www.w3.org/TR/2001/REC-SVG-20010904/DTD/svg10.dtd">
<svg version="1.0" xmlns="http://www.w3.org/2000/svg"
 width="1473.000000pt" height="839.000000pt" viewBox="0 0 1473.000000 839.000000"
 preserveAspectRatio="xMidYMid meet">

<g transform="translate(0.000000,839.000000) scale(0.100000,-0.100000)"
fill="#000000" stroke="none">
<path d="M7292 7498 c-9 -9 -12 -326 -13 -1362 0 -807 -4 -1342 -9 -1329 -5
13 -25 82 -44 155 -52 199 -231 889 -282 1088 -93 360 -145 556 -156 583 -13
33 -53 38 -63 8 -6 -18 37 -187 325 -1296 156 -600 149 -572 131 -589 -18 -17
28 -67 -511 554 -145 168 -274 316 -286 330 -205 237 -212 243 -239 220 -8 -7
-15 -19 -15 -27 0 -7 48 -69 107 -136 58 -67 130 -149 158 -182 218 -252 281
-323 304 -347 14 -15 118 -136 231 -267 113 -132 213 -243 223 -246 12 -4 29
4 53 24 32 29 40 31 114 31 74 0 80 -2 107 -30 15 -17 35 -30 45 -30 22 0 212
216 202 231 -4 7 -3 9 4 5 9 -5 132 129 337 369 33 39 62 72 65 75 3 3 50 57
105 120 55 63 102 117 105 120 3 3 32 37 65 75 33 39 62 72 65 75 42 42 80 94
80 110 0 10 -9 24 -19 30 -25 13 -27 11 -210 -200 -79 -91 -155 -179 -170
-195 -14 -17 -52 -60 -84 -97 -36 -41 -56 -72 -51 -79 4 -7 3 -9 -3 -6 -6 4
-38 -24 -71 -61 -78 -88 -281 -320 -358 -410 -55 -63 -64 -69 -80 -58 -17 13
-15 25 38 232 103 402 307 1188 323 1244 8 30 35 132 60 225 44 169 44 170 24
190 -31 32 -50 10 -75 -86 -12 -46 -43 -165 -69 -264 -25 -99 -89 -344 -141
-545 -92 -356 -165 -633 -223 -855 -16 -60 -30 -103 -30 -95 -1 8 -1 613 -1
1343 0 902 -3 1334 -10 1348 -12 21 -40 25 -58 7z"/>
<path d="M5507 5999 c-9 -6 -17 -18 -17 -27 0 -9 313 -330 695 -712 382 -382
695 -698 695 -702 0 -5 -351 -8 -781 -8 -703 0 -782 -2 -796 -16 -12 -12 -14
-20 -6 -33 9 -15 82 -16 858 -16 798 0 848 1 859 18 9 15 -88 116 -724 753
-404 404 -742 739 -750 744 -9 5 -23 4 -33 -1z"/>
<path d="M8548 5453 c-301 -301 -554 -555 -562 -563 -8 -8 -94 -93 -190 -189
-97 -96 -176 -182 -176 -191 0 -9 5 -21 12 -28 16 -16 1659 -17 1689 -2 25 14
25 46 0 60 -13 7 -281 10 -798 10 l-778 0 705 705 c609 609 703 707 694 722
-6 10 -20 19 -30 21 -14 2 -173 -151 -566 -545z"/>
<path d="M13391 3799 c-48 -19 -84 -54 -107 -103 -36 -77 -29 -144 23 -214 74
-99 241 -95 310 7 51 76 53 156 3 234 -45 72 -151 107 -229 76z m132 -33 c67
-27 116 -120 102 -189 -38 -183 -296 -179 -330 5 -23 126 110 234 228 184z"/>
<path d="M13370 3605 c0 -100 1 -105 21 -105 17 0 20 6 19 33 -3 51 -1 57 20
57 13 0 32 -17 52 -45 18 -25 38 -45 45 -45 20 0 16 13 -17 58 -20 28 -25 42
-16 42 16 0 31 17 40 47 13 40 -24 63 -99 63 l-65 0 0 -105z m114 72 c10 -7
17 -22 15 -33 -3 -15 -14 -20 -47 -22 l-42 -3 0 35 c0 33 3 36 28 36 16 0 36
-6 46 -13z"/>
<path d="M970 3765 l0 -35 165 0 165 0 0 -807 0 -808 -165 3 -165 3 0 -36 0
-35 883 0 883 0 27 273 c15 149 27 278 27 285 0 7 -14 12 -35 12 -32 0 -35 -3
-45 -42 -7 -24 -29 -88 -51 -143 -45 -117 -101 -194 -180 -247 -91 -62 -131
-68 -491 -68 l-318 0 0 805 0 805 175 0 175 0 0 35 0 35 -525 0 -525 0 0 -35z"/>
<path d="M3140 3765 l0 -35 153 0 152 0 1 -623 c1 -671 5 -730 55 -835 30 -61
100 -129 175 -169 208 -111 655 -124 927 -26 137 48 256 142 294 231 46 107
46 115 50 785 l4 637 165 0 164 0 0 35 0 35 -376 0 -375 0 3 -32 3 -33 173 -3
174 -2 -5 -618 c-4 -659 -7 -694 -57 -791 -43 -86 -143 -156 -285 -201 -98
-31 -312 -39 -417 -16 -137 30 -237 115 -272 230 -29 95 -36 256 -36 827 l0
569 165 0 165 0 0 35 0 35 -500 0 -500 0 0 -35z"/>
<path d="M5692 3768 l3 -33 158 -3 157 -3 0 -804 0 -804 -157 -3 -158 -3 -1
-32 -1 -33 359 0 358 0 0 35 0 35 -160 0 -160 0 0 822 c0 452 2 819 4 817 5
-4 146 -389 454 -1234 88 -242 164 -448 168 -458 5 -14 15 -17 42 -15 l35 3
173 475 c95 261 236 645 311 852 76 208 141 378 146 378 4 0 6 -369 5 -820
l-3 -821 -160 -2 -160 -2 -3 -32 -3 -33 495 0 496 0 0 35 0 36 -152 -2 -153
-1 -3 806 -2 806 155 0 155 0 0 35 0 35 -367 -2 -367 -3 -93 -255 c-147 -401
-334 -912 -345 -942 -6 -16 -13 -28 -17 -28 -4 0 -108 277 -231 615 l-223 615
-379 0 -379 0 3 -32z"/>
<path d="M8590 3765 l0 -35 170 0 170 0 0 -805 0 -805 -167 -2 -168 -3 -3 -32
-3 -33 929 0 930 0 6 68 c3 37 8 167 12 290 l6 222 -41 0 c-38 0 -41 -2 -41
-27 0 -53 -31 -158 -66 -230 -59 -118 -137 -180 -285 -224 -68 -21 -99 -23
-412 -27 l-337 -4 2 399 3 398 155 -1 c132 -1 164 -4 214 -22 105 -38 156
-113 173 -254 l8 -63 38 -3 37 -3 0 371 0 371 -37 -3 c-34 -3 -38 -6 -41 -33
-1 -16 -10 -59 -19 -94 -13 -53 -25 -74 -67 -117 -67 -69 -100 -77 -301 -78
l-160 -1 -3 373 -2 374 337 -4 c318 -4 342 -6 408 -27 143 -46 225 -130 277
-284 27 -82 27 -82 64 -85 l37 -3 -6 68 c-3 37 -12 143 -18 236 l-12 167 -894
0 -893 0 0 -35z"/>
<path d="M10944 3786 c-3 -8 -4 -23 -2 -33 3 -16 18 -18 171 -21 l167 -2 -2
-806 -3 -806 -152 1 -153 2 0 -36 0 -35 370 0 370 0 0 35 0 36 -175 -3 -175
-3 0 813 c0 446 1 812 3 812 2 0 313 -389 693 -864 656 -823 691 -865 722
-865 l32 -1 0 860 0 860 160 0 160 0 0 35 0 35 -370 0 -370 0 0 -35 0 -35 170
0 170 0 0 -582 c-1 -468 -3 -580 -13 -567 -7 9 -228 287 -492 618 l-480 601
-398 0 c-337 0 -398 -2 -403 -14z"/>
<path d="M8742 1450 c-63 -10 -79 -33 -74 -107 3 -35 47 -50 167 -58 61 -4
116 -12 123 -17 20 -17 15 -76 -7 -88 -28 -14 -214 -13 -229 2 -7 7 -12 22
-12 35 0 18 -6 23 -25 23 -20 0 -25 -5 -25 -24 0 -13 9 -34 19 -47 19 -23 24
-24 161 -24 137 0 142 1 161 24 24 29 24 82 1 111 -16 20 -32 24 -128 32 -143
11 -151 13 -156 41 -10 50 6 65 74 72 35 4 86 3 113 -2 41 -7 51 -12 53 -31 2
-16 10 -22 28 -22 33 0 33 43 1 65 -27 17 -176 27 -245 15z"/>
<path d="M3550 1295 l0 -155 25 0 c24 0 25 3 25 60 l0 60 88 0 c103 1 162 12
179 36 23 31 16 102 -12 129 -23 24 -29 25 -165 25 l-140 0 0 -155z m269 111
c7 -8 11 -32 9 -53 -4 -51 -30 -63 -140 -63 l-88 0 0 65 0 65 104 0 c78 0 107
-4 115 -14z"/>
<path d="M4000 1295 l0 -155 25 0 c24 0 25 3 25 60 l0 60 108 0 c71 0 112 -4
120 -12 7 -7 12 -34 12 -60 0 -45 2 -48 25 -48 25 0 26 2 23 57 -3 48 -7 59
-25 69 l-23 11 26 11 c23 11 25 16 22 74 -4 84 -12 88 -195 88 l-143 0 0 -155z
m283 105 c9 -13 12 -33 8 -57 -5 -31 -11 -38 -39 -45 -18 -5 -70 -7 -115 -6
l-82 3 -3 63 -3 62 110 0 c98 0 111 -2 124 -20z"/>
<path d="M4487 1443 c-3 -5 -6 -74 -6 -155 l-2 -148 161 0 c136 0 160 2 160
15 0 13 -22 15 -135 15 l-136 0 3 58 3 57 133 3 c100 2 132 6 129 15 -2 8 -43
13 -135 15 l-132 3 0 49 0 50 135 0 c113 0 135 2 135 15 0 13 -24 15 -154 15
-85 0 -157 -3 -159 -7z"/>
<path d="M4930 1296 l0 -156 25 0 24 0 3 138 3 137 75 -137 c71 -131 77 -138
106 -138 30 0 35 7 110 143 l79 142 3 -142 3 -143 24 0 25 0 0 155 0 155 -44
0 -44 0 -74 -135 c-40 -74 -76 -133 -81 -132 -4 1 -40 61 -81 132 l-73 130
-41 3 -42 3 0 -155z"/>
<path d="M5560 1295 l0 -155 25 0 25 0 0 155 0 155 -25 0 -25 0 0 -155z"/>
<path d="M5760 1322 c0 -125 1 -129 26 -153 24 -23 32 -24 154 -24 122 0 130
1 154 24 25 24 26 28 26 153 0 127 0 128 -23 128 -23 0 -24 -1 -26 -122 -2
-156 -4 -158 -131 -158 -125 0 -129 4 -131 145 -2 124 -4 135 -30 135 -18 0
-19 -9 -19 -128z"/>
<path d="M6270 1295 l0 -155 25 0 24 0 3 140 3 140 77 -138 c73 -132 77 -137
109 -137 31 0 35 5 108 137 l76 136 3 -139 3 -139 24 0 25 0 0 155 0 155 -42
0 -43 0 -74 -135 c-41 -74 -77 -135 -80 -135 -3 0 -40 61 -81 135 l-75 135
-42 0 -43 0 0 -155z"/>
<path d="M7070 1295 l0 -155 25 0 25 0 0 143 0 142 78 -140 c72 -128 82 -140
109 -143 30 -3 33 1 109 137 l79 141 3 -140 3 -140 24 0 25 0 0 155 0 155 -43
0 -43 0 -74 -135 c-41 -74 -77 -135 -80 -135 -3 0 -39 61 -80 135 l-75 134
-42 1 -43 0 0 -155z"/>
<path d="M7700 1295 l0 -155 160 0 c136 0 160 2 160 15 0 13 -22 15 -135 15
l-135 0 0 60 0 60 130 0 c109 0 130 2 130 15 0 13 -21 15 -130 15 l-130 0 0
50 0 50 135 0 c113 0 135 2 135 15 0 13 -24 15 -160 15 l-160 0 0 -155z"/>
<path d="M8140 1295 l0 -155 25 0 24 0 3 139 3 140 123 -140 c119 -134 125
-139 163 -139 l39 0 0 155 0 155 -25 0 -24 0 -3 -137 -3 -137 -120 136 c-118
134 -121 136 -162 137 l-43 1 0 -155z"/>
<path d="M9132 1437 c2 -7 28 -77 58 -155 l55 -143 35 3 34 3 51 132 c27 73
52 133 55 133 3 0 29 -61 58 -135 53 -134 54 -135 85 -135 32 0 32 1 94 156
l62 155 -27 -3 c-23 -3 -31 -16 -75 -131 -28 -70 -54 -124 -58 -120 -4 4 -28
63 -55 131 l-47 122 -37 0 -37 0 -49 -130 c-27 -71 -51 -130 -54 -130 -3 0
-28 58 -55 130 -44 115 -53 130 -73 130 -14 0 -22 -5 -20 -13z"/>
<path d="M9830 1295 l0 -155 160 0 c136 0 160 2 160 15 0 13 -22 15 -135 15
l-135 0 0 60 0 60 130 0 c109 0 130 2 130 15 0 13 -21 15 -130 15 l-130 0 0
50 0 50 135 0 c113 0 135 2 135 15 0 13 -24 15 -160 15 l-160 0 0 -155z"/>
<path d="M10372 1408 c-141 -260 -145 -268 -120 -268 16 0 29 12 46 40 l23 40
117 0 117 0 23 -40 c16 -29 29 -40 46 -40 23 0 20 8 -59 153 l-83 152 -44 3
c-41 2 -44 1 -66 -40z m123 -75 l44 -83 -100 0 c-56 0 -99 4 -97 8 25 60 86
162 96 160 7 -2 33 -40 57 -85z"/>
<path d="M10750 1295 l0 -155 25 0 c24 0 25 3 25 60 l0 60 108 0 c71 0 112 -4
120 -12 7 -7 12 -34 12 -60 0 -45 2 -48 25 -48 24 0 25 3 25 54 0 43 -4 58
-20 69 -19 13 -19 13 0 30 15 12 20 29 20 64 0 85 -17 93 -199 93 l-141 0 0
-155z m279 111 c7 -8 11 -34 9 -58 -3 -39 -6 -44 -33 -49 -16 -4 -69 -7 -117
-8 l-88 -1 0 65 0 65 109 0 c82 0 111 -4 120 -14z"/>
<path d="M6080 544 l0 -156 160 3 c194 5 209 13 202 117 -1 14 -11 26 -29 33
l-26 10 22 15 c18 13 22 24 19 62 -4 66 -20 72 -200 72 l-148 0 0 -156z m281
116 c22 -12 26 -59 7 -78 -8 -8 -50 -12 -125 -12 l-113 0 0 50 0 50 106 0 c58
0 114 -5 125 -10z m-6 -129 c26 -5 30 -11 33 -46 5 -58 -11 -65 -145 -65
l-113 0 0 60 0 60 98 -1 c53 -1 111 -4 127 -8z"/>
<path d="M6590 546 l0 -156 25 0 c24 0 25 3 25 60 l0 60 114 0 c129 0 135 -3
144 -75 4 -39 8 -45 28 -45 22 0 24 4 24 46 0 53 -14 84 -38 84 -13 1 -10 6
11 21 22 17 27 28 27 64 0 27 -7 51 -19 66 -19 23 -25 24 -180 27 l-161 3 0
-155z m290 104 c23 -23 26 -58 6 -85 -12 -17 -30 -20 -130 -23 l-116 -4 0 66
0 66 110 0 c97 0 112 -2 130 -20z"/>
<path d="M7137 550 c-48 -83 -87 -153 -87 -156 0 -2 11 -4 25 -4 19 0 29 10
45 40 l20 40 125 0 125 0 20 -32 c11 -18 21 -37 23 -41 1 -5 14 -7 29 -5 26 3
25 4 -61 153 l-87 150 -46 3 -45 3 -86 -151z m184 43 c24 -43 46 -81 47 -85 2
-5 -44 -8 -102 -8 l-105 0 41 73 c44 79 57 97 67 97 4 0 27 -35 52 -77z"/>
<path d="M7600 545 l0 -155 25 0 25 0 0 135 c0 104 3 133 13 129 6 -3 66 -64
131 -135 113 -121 122 -129 157 -129 37 0 38 1 41 43 2 23 2 93 0 155 -3 111
-3 112 -27 112 l-24 0 -3 -136 -3 -135 -125 135 c-122 131 -126 134 -167 135
l-43 1 0 -155z"/>
<path d="M8160 545 l0 -155 138 0 c235 1 252 11 252 154 0 145 -17 156 -247
156 l-143 0 0 -155z m326 101 c9 -13 14 -47 14 -101 0 -119 0 -119 -159 -123
l-131 -4 0 127 0 127 131 -4 c116 -3 132 -5 145 -22z"/>
</g>
</svg>
